<svg width="512" height="512" viewBox="0 0 512 512" fill="none" xmlns="http://www.w3.org/2000/svg">
  <defs>
    <linearGradient id="bg512" x1="0" y1="0" x2="512" y2="512" gradientUnits="userSpaceOnUse">
      <stop stop-color="#2A2E35"/>
      <stop offset="1" stop-color="#171A20"/>
    </linearGradient>
    <linearGradient id="eye512" x1="96" y1="168" x2="416" y2="344" gradientUnits="userSpaceOnUse">
      <stop stop-color="#F3F5F8"/>
      <stop offset="1" stop-color="#B6BCC5"/>
    </linearGradient>
    <radialGradient id="iris512" cx="0" cy="0" r="1" gradientUnits="userSpaceOnUse" gradientTransform="translate(256 256) rotate(90) scale(58)">
      <stop stop-color="#ECEFF4"/>
      <stop offset="1" stop-color="#8E96A2"/>
    </radialGradient>
  </defs>

  <rect x="0" y="0" width="512" height="512" rx="0" fill="url(#bg512)"/>
  <rect x="2" y="2" width="508" height="508" rx="0" stroke="white" stroke-opacity="0.12" stroke-width="4"/>

  <!-- Eye shape -->
  <path d="M72 256C101 201 160 152 256 152C352 152 411 201 440 256C411 311 352 360 256 360C160 360 101 311 72 256Z" stroke="url(#eye512)" stroke-width="18" stroke-linejoin="round"/>
  <circle cx="256" cy="256" r="58" fill="url(#iris512)"/>
  <circle cx="256" cy="256" r="24" fill="#151920"/>
  <circle cx="272" cy="240" r="10" fill="#F6F8FB"/>

  <!-- Brand text -->
  <rect x="154" y="380" width="204" height="62" rx="31" fill="white" fill-opacity="0.1"/>
  <text x="256" y="420" text-anchor="middle" fill="#E8ECF2" font-size="36" font-family="Segoe UI, Inter, Arial, sans-serif" font-weight="700" letter-spacing="2">I23D</text>
</svg>
